<svg width="488" height="497" viewBox="0 0 488 497" fill="none" xmlns="http://www.w3.org/2000/svg">
<circle cx="281.42" cy="290.332" r="206.58" fill="#5ADF5A"/>
<path d="M371.929 93.0879C357.861 115.328 337.824 133.26 318.556 148.734L307.142 157.737L296.235 166.24C285.121 174.97 269.1 174.123 259.026 163.932L229.706 129.471C226.799 126.056 221.871 125.183 218.092 127.597C203.708 136.788 182.462 152.87 166.852 170.697C151.226 188.542 137.215 212.837 129.148 229.395C127.058 233.689 128.772 238.802 132.93 241.153L170.411 262.351C183.042 270.597 186.79 287.307 179.108 300.143L171.405 313.039C156.955 337.105 140.446 363.052 117.498 383.553C109.793 390.437 99.2298 392.083 90.1477 388.885C52.8446 375.744 19.3459 338.455 18.1399 297.434L18.08 291.831L18.1664 287.479L18.3855 282.654L18.7643 277.376L19.3301 271.661C19.4414 270.673 19.5617 269.667 19.6915 268.645L20.5884 262.309C20.7583 261.22 20.9388 260.115 21.1306 258.994L22.4196 252.078L24.0039 244.798L25.9106 237.172C35.2569 202.104 55.2195 157.068 96.9136 109.454C138.608 61.84 180.614 36.1074 214.142 22.2138L221.45 19.3172L228.457 16.7858L235.142 14.5952L241.483 12.7209C243.537 12.1461 245.531 11.62 247.46 11.1384L253.05 9.82323L258.232 8.75087L262.986 7.89684L267.288 7.23666L272.85 6.55627C313.535 2.35189 355.233 30.9671 373.1 66.0468C377.293 74.2783 377.309 84.5837 371.929 93.0879ZM315.17 248.624L315.06 250.796C313.572 264.476 307.792 277.334 298.547 287.528C289.303 297.72 277.069 304.723 263.598 307.536C253.533 309.638 243.671 303.181 241.569 293.116C239.617 283.77 245.045 274.598 253.889 271.654L255.989 271.088C261.762 269.882 267.005 266.88 270.967 262.512C274.268 258.871 276.539 254.438 277.573 249.668L278.044 246.77C279.156 236.55 288.343 229.164 298.565 230.276C308.057 231.308 315.103 239.304 315.17 248.624ZM371.645 245.035C372.615 259.672 370.693 274.358 365.988 288.251C361.283 302.147 353.887 314.977 344.224 326.014C334.56 337.049 322.817 346.075 309.665 352.572C296.514 359.069 282.211 362.913 267.574 363.883C257.314 364.564 248.446 356.798 247.766 346.538C247.134 337.011 253.785 328.684 262.953 326.999L265.111 326.73C274.869 326.083 284.404 323.522 293.172 319.189C301.94 314.857 309.768 308.842 316.211 301.483C322.653 294.126 327.584 285.573 330.72 276.308C333.334 268.589 334.66 260.505 334.655 252.377L334.492 247.498C333.811 237.238 341.577 228.37 351.837 227.69C362.096 227.01 370.965 234.776 371.645 245.035Z" fill="black"/>
</svg>
